<?xml version="1.0" standalone="no"?>
<!DOCTYPE svg PUBLIC "-//W3C//DTD SVG 20010904//EN"
 "http://www.w3.org/TR/2001/REC-SVG-20010904/DTD/svg10.dtd">
<svg version="1.0" xmlns="http://www.w3.org/2000/svg"
 width="270.000000pt" height="270.000000pt" viewBox="0 0 270.000000 270.000000"
 preserveAspectRatio="xMidYMid meet">
<metadata>
Created by potrace 1.11, written by Peter Selinger 2001-2013
</metadata>
<g transform="translate(0.000000,270.000000) scale(0.100000,-0.100000)"
fill="#000000" stroke="none">
<path d="M2190 2671 c0 -6 -7 -11 -17 -11 -9 0 -13 -3 -10 -7 4 -3 -4 -14 -19
-23 -14 -10 -26 -21 -27 -26 -1 -5 -17 -22 -37 -39 -20 -16 -37 -33 -39 -37
-3 -9 -216 -219 -231 -228 -6 -4 -10 -10 -8 -12 1 -3 -17 -22 -42 -43 -25 -21
-44 -39 -44 -40 1 -2 -41 -46 -92 -98 -52 -52 -94 -92 -94 -88 0 3 -4 0 -9 -8
-13 -20 -174 -181 -181 -181 -10 0 -270 261 -270 271 0 6 -3 9 -7 6 -10 -4
-342 330 -335 338 3 3 0 5 -6 5 -14 0 -92 78 -92 92 0 6 -3 9 -6 5 -3 -3 -34
23 -69 59 -34 35 -65 64 -69 64 -3 0 -49 -43 -101 -95 l-96 -94 525 -525 525
-525 423 422 c232 232 422 425 420 430 -1 4 2 7 7 7 11 0 164 150 153 151 -4
0 3 4 16 9 12 5 22 16 22 24 0 8 -43 58 -95 111 -52 53 -95 92 -95 86z"/>
<path d="M119 2312 l-96 -97 424 -423 c294 -293 423 -428 419 -438 -3 -9 -6
-18 -6 -20 0 -3 -4 -2 -10 1 -5 3 -10 -2 -10 -11 0 -10 -3 -14 -7 -11 -3 4
-17 -8 -30 -25 -12 -18 -23 -28 -23 -22 -1 5 -7 -2 -15 -16 -8 -14 -14 -21
-15 -17 0 4 -20 -15 -45 -43 -25 -28 -45 -49 -45 -46 0 2 -15 -10 -33 -27 -18
-18 -31 -34 -30 -35 1 -2 -20 -23 -47 -47 -27 -24 -46 -46 -43 -49 4 -3 -1 -6
-10 -6 -9 0 -19 -5 -23 -12 -5 -7 -2 -8 7 -3 19 11 2 -6 -35 -33 -16 -12 -25
-22 -21 -22 4 0 -9 -13 -30 -30 -21 -16 -34 -30 -30 -30 4 0 -9 -13 -30 -30
-21 -16 -34 -30 -29 -30 5 0 -3 -8 -19 -18 -15 -10 -24 -22 -20 -25 3 -4 -2
-7 -12 -7 -10 0 -15 -3 -12 -7 4 -3 -5 -15 -20 -25 -16 -10 -24 -18 -19 -18 5
0 -7 -13 -27 -29 -20 -15 -34 -31 -30 -35 3 -3 -2 -6 -12 -6 -10 0 -15 -3 -12
-6 4 -4 -9 -19 -28 -34 -19 -15 -32 -29 -30 -32 3 -3 -6 -10 -19 -18 -19 -10
-22 -15 -13 -26 38 -45 179 -184 186 -184 4 0 243 234 529 521 l522 521 -525
524 c-289 288 -526 524 -527 523 -2 0 -46 -44 -99 -97z"/>
<path d="M2362 2286 c-56 -57 -102 -101 -102 -99 0 2 -18 -16 -39 -41 -21 -25
-41 -43 -43 -40 -3 2 -11 -7 -18 -21 -7 -13 -22 -27 -32 -31 -11 -3 -17 -8
-15 -11 3 -2 -24 -31 -59 -64 -35 -32 -62 -59 -60 -59 1 0 -27 -30 -63 -67
-36 -38 -68 -67 -70 -65 -3 1 -13 -10 -23 -25 -10 -16 -18 -25 -18 -21 0 4
-27 -22 -60 -57 -33 -35 -60 -61 -60 -57 0 4 -8 -5 -18 -21 -10 -15 -20 -25
-23 -23 -2 2 -10 -2 -17 -10 -7 -8 -9 -14 -5 -14 4 0 -7 -10 -24 -22 -16 -13
-32 -27 -34 -33 -2 -5 -7 -9 -11 -8 -5 2 -8 -4 -8 -13 0 -8 -3 -13 -7 -11 -5
2 -16 -4 -25 -15 -10 -10 -15 -18 -11 -18 4 0 -8 -11 -27 -25 -19 -14 -30 -25
-25 -25 5 0 -1 -7 -13 -16 -12 -8 -22 -19 -22 -25 0 -5 235 -244 522 -530
l522 -521 57 60 c32 33 60 57 63 54 3 -3 6 0 6 6 0 7 14 24 30 39 36 31 38 47
8 67 -12 9 -18 16 -13 16 6 0 3 5 -5 10 -24 15 -190 183 -190 192 0 4 -3 8 -8
8 -13 0 -72 58 -72 71 0 7 -3 10 -6 7 -6 -7 -134 122 -134 134 0 5 -4 8 -9 8
-12 0 -179 169 -173 175 3 3 0 5 -6 5 -14 0 -160 148 -154 155 3 3 -2 5 -12 5
-9 0 -20 10 -25 23 -8 20 36 66 415 445 l423 423 -94 95 c-52 52 -98 94 -103
94 -4 0 -53 -47 -110 -104z"/>
<path d="M1320 1245 c-14 -18 -28 -31 -32 -28 -5 2 -8 -4 -8 -13 0 -10 -3 -14
-6 -11 -4 4 -20 -10 -35 -30 -16 -20 -29 -32 -29 -27 0 5 -8 -3 -18 -19 -10
-15 -22 -24 -25 -20 -4 3 -7 -2 -7 -12 0 -10 -3 -15 -7 -12 -3 4 -15 -5 -25
-20 -10 -16 -18 -24 -18 -19 0 5 -13 -8 -30 -29 -16 -21 -30 -35 -30 -32 0 4
-10 -4 -23 -16 -13 -12 -22 -24 -20 -26 1 -2 -13 -16 -32 -31 -19 -15 -32 -30
-28 -34 3 -3 -1 -6 -10 -6 -9 0 -17 -7 -17 -17 0 -9 -2 -14 -5 -11 -7 7 -75
-61 -75 -75 0 -6 -3 -7 -7 -4 -3 4 -15 -5 -25 -20 -10 -16 -18 -24 -18 -19 0
5 -13 -7 -29 -27 -15 -20 -30 -35 -32 -34 -2 2 -14 -7 -26 -20 -12 -13 -20
-23 -16 -23 3 0 -10 -13 -30 -29 -20 -15 -34 -31 -30 -35 3 -3 2 -6 -3 -6 -14
0 -123 -108 -116 -115 3 -3 -2 -5 -12 -5 -9 0 -15 -4 -12 -8 2 -4 -8 -16 -23
-26 -15 -11 -36 -32 -47 -47 -10 -15 -20 -26 -23 -24 -2 3 -17 -12 -32 -32
-16 -20 -29 -32 -29 -27 0 9 -20 -17 -20 -26 0 -10 80 -92 81 -83 0 4 4 -2 10
-15 5 -13 13 -21 17 -18 5 3 14 -5 21 -17 7 -12 24 -31 38 -41 25 -19 26 -19
39 -1 8 11 14 16 14 12 0 -3 16 10 35 30 19 20 35 41 35 46 0 6 3 8 6 5 6 -7
84 71 84 84 0 4 7 8 15 8 8 0 15 8 15 17 0 9 3 14 6 11 6 -7 74 61 74 75 0 6
3 7 7 4 3 -4 15 5 25 20 10 16 18 25 18 21 0 -4 18 12 40 34 22 23 40 46 40
50 0 4 4 8 9 8 11 0 231 220 231 231 0 5 4 9 10 9 12 0 140 130 140 142 0 5 5
6 10 3 6 -3 10 -1 10 4 0 6 4 11 10 11 12 0 850 -836 844 -842 -2 -3 3 -5 11
-5 8 0 13 2 11 4 -6 6 48 59 57 55 4 -2 7 1 7 6 0 13 68 81 74 74 3 -3 6 0 6
6 0 6 10 21 22 32 l22 21 -29 25 c-17 15 -29 30 -28 34 2 5 -5 11 -15 14 -9 3
-26 19 -37 35 -10 16 -22 29 -25 28 -8 -2 -85 77 -83 85 2 5 -1 8 -6 8 -4 0
-105 97 -224 215 -119 118 -213 215 -210 215 3 0 -7 10 -23 23 -36 28 -123
115 -152 152 -12 15 -22 25 -22 21 0 -4 -43 37 -95 90 -52 54 -95 94 -95 88 0
-5 -4 -4 -8 3 -4 7 -16 0 -32 -22z"/>
</g>
</svg>
